<svg width="146" height="325" viewBox="0 0 146 325" fill="none" xmlns="http://www.w3.org/2000/svg">
<mask id="path-1-inside-1_300_893" fill="white">
<path d="M0.870982 0.883601C40.718 5.06891 77.6053 23.917 104.409 53.7877C131.212 83.6583 146.03 122.432 146 162.621C145.97 202.809 131.095 241.561 104.248 271.392C77.4 301.222 40.4848 320.015 0.631629 324.141L0.447221 322.349C39.8585 318.269 76.3644 299.684 102.914 270.184C129.464 240.684 144.174 202.362 144.204 162.619C144.233 122.876 129.58 84.5325 103.074 54.993C76.5674 25.4536 40.0891 6.81446 0.68392 2.67556L0.870982 0.883601Z"/>
</mask>
<path d="M0.870982 0.883601C40.718 5.06891 77.6053 23.917 104.409 53.7877C131.212 83.6583 146.03 122.432 146 162.621C145.97 202.809 131.095 241.561 104.248 271.392C77.4 301.222 40.4848 320.015 0.631629 324.141L0.447221 322.349C39.8585 318.269 76.3644 299.684 102.914 270.184C129.464 240.684 144.174 202.362 144.204 162.619C144.233 122.876 129.58 84.5325 103.074 54.993C76.5674 25.4536 40.0891 6.81446 0.68392 2.67556L0.870982 0.883601Z" stroke="#E5E5E5" stroke-opacity="0.8" stroke-width="4" mask="url(#path-1-inside-1_300_893)"/>
</svg>
