<svg width="22" height="16" viewBox="0 0 22 16" fill="none" xmlns="http://www.w3.org/2000/svg">
<path d="M21.2143 13.7143H0.785714C0.57733 13.7143 0.37748 13.7745 0.23013 13.8817C0.0827804 13.9888 0 14.1342 0 14.2857L0 15.4286C0 15.5801 0.0827804 15.7255 0.23013 15.8326C0.37748 15.9398 0.57733 16 0.785714 16H21.2143C21.4227 16 21.6225 15.9398 21.7699 15.8326C21.9172 15.7255 22 15.5801 22 15.4286V14.2857C22 14.1342 21.9172 13.9888 21.7699 13.8817C21.6225 13.7745 21.4227 13.7143 21.2143 13.7143ZM21.2143 9.14286H0.785714C0.57733 9.14286 0.37748 9.20306 0.23013 9.31022C0.0827804 9.41739 0 9.56273 0 9.71429L0 10.8571C0 11.0087 0.0827804 11.154 0.23013 11.2612C0.37748 11.3684 0.57733 11.4286 0.785714 11.4286H21.2143C21.4227 11.4286 21.6225 11.3684 21.7699 11.2612C21.9172 11.154 22 11.0087 22 10.8571V9.71429C22 9.56273 21.9172 9.41739 21.7699 9.31022C21.6225 9.20306 21.4227 9.14286 21.2143 9.14286ZM21.2143 4.57143H0.785714C0.57733 4.57143 0.37748 4.63163 0.23013 4.7388C0.0827804 4.84596 0 4.9913 0 5.14286L0 6.28571C0 6.43727 0.0827804 6.58261 0.23013 6.68977C0.37748 6.79694 0.57733 6.85714 0.785714 6.85714H21.2143C21.4227 6.85714 21.6225 6.79694 21.7699 6.68977C21.9172 6.58261 22 6.43727 22 6.28571V5.14286C22 4.9913 21.9172 4.84596 21.7699 4.7388C21.6225 4.63163 21.4227 4.57143 21.2143 4.57143ZM21.2143 0H0.785714C0.57733 0 0.37748 0.0602039 0.23013 0.167368C0.0827804 0.274531 0 0.419876 0 0.571429L0 1.71429C0 1.86584 0.0827804 2.01118 0.23013 2.11835C0.37748 2.22551 0.57733 2.28571 0.785714 2.28571H21.2143C21.4227 2.28571 21.6225 2.22551 21.7699 2.11835C21.9172 2.01118 22 1.86584 22 1.71429V0.571429C22 0.419876 21.9172 0.274531 21.7699 0.167368C21.6225 0.0602039 21.4227 0 21.2143 0V0Z" fill="#E5E5E5" fill-opacity="0.8"/>
</svg>
